<svg width="0" height="0" class="hidden">
  <symbol xmlns="http://www.w3.org/2000/svg" viewBox="0 0 24 24" id="iconmonstr-youtube-6">
    <path d="M19.615 3.184c-3.604-.246-11.631-.245-15.23 0C.488 3.45.029 5.804 0 12c.029 6.185.484 8.549 4.385 8.816 3.6.245 11.626.246 15.23 0C23.512 20.55 23.971 18.196 24 12c-.029-6.185-.484-8.549-4.385-8.816zM9 16V8l8 3.993L9 16z"></path>
  </symbol>
  <symbol fill="none" xmlns="http://www.w3.org/2000/svg" viewBox="0 0 176 272" id="logo">
    <path d="M94.345 29.931c6.751-7.876 19.549-1.532 17.369 8.61l-20.115 93.561A10 10 0 0181.822 140h-60.08c-8.543 0-13.152-10.021-7.592-16.508l80.195-93.56z" fill="#FF3221"></path>
    <path d="M81.655 242.069c-6.75 7.876-19.55 1.532-17.369-8.61l20.115-93.561A10 10 0 0194.178 132h60.08c8.543 0 13.152 10.021 7.592 16.508l-80.195 93.561z" fill="#032B5F"></path>
  </symbol>
  <symbol xmlns="http://www.w3.org/2000/svg" viewBox="0 0 64 64" id="verify-user">
    <title>Verify User</title>
    <path d="M36.7 26.9c2.5 0 3-5.1 3-5.8s.1-3.8-2.4-3.8C42.6 4.5 28.4-2.3 17.8 5.1c-4.4 0-4.7 5.9-3.1 12.3-2.5 0-2.4 3-2.4 3.8s.6 5.8 3 5.8a14.6 14.6 0 004.2 7v1.6c0 1.6 0 4-8.1 5.6S2 50 2 50h28.1a17.8 17.8 0 013-12.1 3.6 3.6 0 01-.6-2.3V34a14.6 14.6 0 004.2-7.1z" fill="#8d8ea3"></path>
    <path d="M48 34a14 14 0 1014 14 14 14 0 00-14-14zm7.6 11.8l-8.4 9.5-5.9-5.9a2 2 0 112.8-2.8l2.9 2.8 5.6-6.3a2 2 0 113 2.7z" fill="#253858"></path>
  </symbol>
  <symbol xmlns="http://www.w3.org/2000/svg" viewBox="0 0 64 64" id="conversations">
    <title>Conversations</title>
    <path d="M52 20.5a15 15 0 00-15-15H17a15 15 0 00-5 29.1v11.9l11-11h14a15 15 0 0015-15z" fill="#8d8ea3"></path>
    <path d="M54.4 28A19 19 0 0137 39.5h-8.9a11 11 0 0010.9 10h5.9l9.1 9V49a11 11 0 00.4-21z" fill="#253858"></path>
  </symbol>
  <symbol xmlns="http://www.w3.org/2000/svg" viewBox="0 0 24 24" id="iconmonstr-facebook-4">
    <path d="M12 0C5.373 0 0 5.373 0 12s5.373 12 12 12 12-5.373 12-12S18.627 0 12 0zm3 8h-1.35c-.538 0-.65.221-.65.778V10h2l-.209 2H13v7h-3v-7H8v-2h2V7.692C10 5.923 10.931 5 13.029 5H15v3z"></path>
  </symbol>
  <symbol xmlns="http://www.w3.org/2000/svg" viewBox="0 0 24 24" id="iconmonstr-instagram-11">
    <path d="M12 2.163c3.204 0 3.584.012 4.85.07 3.252.148 4.771 1.691 4.919 4.919.058 1.265.069 1.645.069 4.849 0 3.205-.012 3.584-.069 4.849-.149 3.225-1.664 4.771-4.919 4.919-1.266.058-1.644.07-4.85.07-3.204 0-3.584-.012-4.849-.07-3.26-.149-4.771-1.699-4.919-4.92-.058-1.265-.07-1.644-.07-4.849 0-3.204.013-3.583.07-4.849.149-3.227 1.664-4.771 4.919-4.919 1.266-.057 1.645-.069 4.849-.069zM12 0C8.741 0 8.333.014 7.053.072 2.695.272.273 2.69.073 7.052.014 8.333 0 8.741 0 12c0 3.259.014 3.668.072 4.948.2 4.358 2.618 6.78 6.98 6.98C8.333 23.986 8.741 24 12 24c3.259 0 3.668-.014 4.948-.072 4.354-.2 6.782-2.618 6.979-6.98.059-1.28.073-1.689.073-4.948 0-3.259-.014-3.667-.072-4.947-.196-4.354-2.617-6.78-6.979-6.98C15.668.014 15.259 0 12 0zm0 5.838a6.162 6.162 0 100 12.324 6.162 6.162 0 000-12.324zM12 16a4 4 0 110-8 4 4 0 010 8zm6.406-11.845a1.44 1.44 0 100 2.881 1.44 1.44 0 000-2.881z"></path>
  </symbol>
  <symbol xmlns="http://www.w3.org/2000/svg" viewBox="0 0 24 24" id="iconmonstr-linkedin-4">
    <path d="M12 0C5.373 0 0 5.373 0 12s5.373 12 12 12 12-5.373 12-12S18.627 0 12 0zm-2 16H8v-6h2v6zM9 9.109c-.607 0-1.1-.496-1.1-1.109 0-.612.492-1.109 1.1-1.109s1.1.497 1.1 1.109c0 .613-.493 1.109-1.1 1.109zM17 16h-1.998v-2.861c0-1.881-2.002-1.722-2.002 0V16h-2v-6h2v1.093c.872-1.616 4-1.736 4 1.548V16z"></path>
  </symbol>
  <symbol xmlns="http://www.w3.org/2000/svg" viewBox="0 0 24 24" id="iconmonstr-magnifier-5">
    <path d="M23.832 19.641l-6.821-6.821C19.845 6.942 15.561 0 8.946 0 4.014 0 0 4.014 0 8.947c0 6.508 6.739 10.798 12.601 8.166l6.879 6.879c1.957.164 4.52-2.326 4.352-4.351zM8.946 14.92c-3.293 0-5.973-2.68-5.973-5.973s2.68-5.973 5.973-5.973c3.294 0 5.974 2.68 5.974 5.973s-2.68 5.973-5.974 5.973z"></path>
  </symbol>
  <symbol xmlns="http://www.w3.org/2000/svg" viewBox="0 0 24 24" id="iconmonstr-twitter-1">
    <path d="M24 4.557a9.83 9.83 0 01-2.828.775 4.932 4.932 0 002.165-2.724 9.864 9.864 0 01-3.127 1.195 4.916 4.916 0 00-3.594-1.555c-3.179 0-5.515 2.966-4.797 6.045A13.978 13.978 0 011.671 3.149a4.93 4.93 0 001.523 6.574 4.903 4.903 0 01-2.229-.616c-.054 2.281 1.581 4.415 3.949 4.89a4.935 4.935 0 01-2.224.084 4.928 4.928 0 004.6 3.419A9.9 9.9 0 010 19.54a13.94 13.94 0 007.548 2.212c9.142 0 14.307-7.721 13.995-14.646A10.025 10.025 0 0024 4.557z"></path>
  </symbol>
  <symbol xmlns="http://www.w3.org/2000/svg" viewBox="0 0 512 512" id="arrow-forward-outline">
    <title>Arrow Forward</title>
    <path fill="none" stroke="currentColor" stroke-linecap="round" stroke-linejoin="round" stroke-width="48" d="M268 112l144 144-144 144m124-144H100"></path>
  </symbol>
  <symbol xmlns="http://www.w3.org/2000/svg" viewBox="0 0 64 64" id="private-folder">
    <title>Private Folder</title>
    <path d="M58 38v-8a8 8 0 10-16 0v8h-4v18h24V38zm-6 11a2 2 0 11-4 0v-4a2 2 0 114 0zm-6-11v-8a4 4 0 118 0v8z" fill="#8d8ea3"></path>
    <path d="M34 38v-4h4v-4a12 12 0 0116-11.3V14H22V8H2v40.3A1.7 1.7 0 003.7 50H34z" fill="#253858"></path>
  </symbol>
  <symbol xmlns="http://www.w3.org/2000/svg" viewBox="0 0 64 64" id="syncing-document">
    <title>Syncing Document</title>
    <path d="M40 23.5H24v32.7a1.3 1.3 0 001.3 1.3h35.4a1.3 1.3 0 001.3-1.3V27.5H40z" fill="#253858"></path>
    <path d="M40 19.5v-12H18v-4H2v32.7a1.3 1.3 0 001.3 1.3H20v-18h20zM17.4 52.1l-5-5a2 2 0 00-2.8 2.8l1.6 1.6H6a2 2 0 01-2-2v-2a2 2 0 10-4 0v2a6 6 0 006 6h5.2l-1.6 1.6a2 2 0 002.8 2.8l5-5 1.4-1.4-1.4-1.4z" fill="#8d8ea3"></path>
    <path d="M58 9.5h-5.2l1.6-1.6a2 2 0 00-2.8-2.8l-5 5-1.4 1.4 1.4 1.4 5 5a2 2 0 002.8-2.8l-1.6-1.6H58a2 2 0 012 2v2a2 2 0 104 0v-2a6 6 0 00-6-6z" fill="#253858"></path>
  </symbol>
  <symbol xmlns="http://www.w3.org/2000/svg" viewBox="0 0 64 64" id="ssd-storage">
    <title>SSD Storage</title>
    <path d="M60.8 33l-6.2-20A5.1 5.1 0 0050 9H14c-2 0-3.7 1.3-4.6 4L3.2 33z" fill="#8d8ea3"></path>
    <path d="M2 53a2 2 0 002 2h56a2 2 0 002-2V37H2zm48.6-13.4a2.1 2.1 0 012.8 0A2 2 0 0154 41a2 2 0 01-2 2 2 2 0 01-2-2 2 2 0 01.6-1.4zM12 45h40a2 2 0 010 4H12a2 2 0 010-4z" fill="#253858"></path>
  </symbol>
  <symbol xmlns="http://www.w3.org/2000/svg" viewBox="0 0 64 64" id="catalogue">
    <title>Catalogue</title>
    <path d="M32 17C32 9 16 7 2 7v44c14 0 30 2 30 10zm22-9.8l8-.2v44c-14 0-30 2-30 10m0-44c0-4.1 4.1-6.6 10-8.1" fill="none" stroke="#28759d" stroke-miterlimit="10" stroke-width="2" stroke-linejoin="round" stroke-linecap="round"></path>
    <path d="M42 25.3l6-4 6 4V3.4a67.4 67.4 0 00-12 1.7z" fill="none" stroke="#24ccfd" stroke-miterlimit="10" stroke-width="2" stroke-linejoin="round" stroke-linecap="round"></path>
  </symbol>
  <symbol xmlns="http://www.w3.org/2000/svg" viewBox="0 0 64 64" id="chart">
    <title>Chart</title>
    <path stroke-width="2" stroke-miterlimit="10" stroke="#28759d" fill="none" d="M32 47C15.432 47 2 38.047 2 27v10c0 11.046 13.432 20 30 20a40.987 40.987 0 0017-3.523v-10A41 41 0 0132 47z" stroke-linejoin="round" stroke-linecap="round"></path>
    <path stroke-width="2" stroke-miterlimit="10" stroke="#28759d" fill="none" d="M62 27C62 15.955 48.568 7 32 7S2 15.955 2 27s13.432 20 30 20a41 41 0 0017-3.523V43M32 27V7.008 27" stroke-linejoin="round" stroke-linecap="round"></path>
    <path stroke-width="2" stroke-miterlimit="10" stroke="#24ccfd" fill="none" d="M49 43.477v10C56.851 49.87 62 43.837 62 37V27c0 6.838-5.149 12.87-13 16.477z" stroke-linejoin="round" stroke-linecap="round"></path>
    <path stroke-width="2" stroke-linejoin="round" stroke="#24ccfd" fill="none" d="M49 43v.477C56.851 39.87 62 33.838 62 27H32l8 7.529z" stroke-linecap="round"></path>
  </symbol>
  <symbol xmlns="http://www.w3.org/2000/svg" viewBox="0 0 64 64" id="data-app">
    <title>Data App</title>
    <path d="M2 23v22l30.082 14L62 45V23L32 37.048 2 23zm30 14.048V59m25.332-38.178L62 23M37.459 11.548l9.148 4.269m-29.232.009l9.147-4.27M2 23l4.742-2.213" stroke-width="2" stroke-linejoin="round" stroke-linecap="round" stroke="#28759d" fill="none"></path>
    <ellipse stroke-width="2" stroke-linejoin="round" stroke-linecap="round" stroke="#24ccfd" fill="none" ry="4" rx="7" cy="19" cx="13"></ellipse>
    <ellipse stroke-width="2" stroke-linejoin="round" stroke-linecap="round" stroke="#24ccfd" fill="none" ry="4" rx="7" cy="25" cx="32"></ellipse>
    <ellipse stroke-width="2" stroke-linejoin="round" stroke-linecap="round" stroke="#24ccfd" fill="none" ry="4" rx="7" cy="9" cx="32"></ellipse>
    <ellipse stroke-width="2" stroke-linejoin="round" stroke-linecap="round" stroke="#24ccfd" fill="none" ry="4" rx="7" cy="19" cx="51"></ellipse>
  </symbol>
  <symbol xmlns="http://www.w3.org/2000/svg" viewBox="0 0 64 64" id="dollar-badge">
    <title>Dollar Badge</title>
    <path stroke-width="2" stroke-miterlimit="10" stroke="#24ccfd" fill="none" d="M39.889 24A8 8 0 0032 17.334c-4.418 0-8 2.914-8 7.333s4 6.42 8 7.334c4 .9 8 2.917 8 7.334s-3.582 7.333-8 7.333a8 8 0 01-8-8" stroke-linejoin="round" stroke-linecap="round"></path>
    <path d="M32 17.334v-5.335m0 40.003v-5.335m0-42.196l5.967-2.472 4.568 4.567 6.459.001 2.471 5.967 5.969 2.473v6.458L62 26.032l-2.471 5.967L62 37.967l-4.566 4.568v6.458l-5.969 2.472-2.471 5.967-6.459.001-4.568 4.568L32 59.529l-5.967 2.472-4.568-4.568-6.459-.001-2.471-5.967-5.969-2.472v-6.458L2 37.967l2.471-5.968L2 26.032l4.566-4.567v-6.458l5.969-2.473 2.471-5.967 6.459-.001 4.568-4.567L32 4.471z" stroke-width="2" stroke-miterlimit="10" stroke="#28759d" fill="none" stroke-linejoin="round" stroke-linecap="round"></path>
  </symbol>
  <symbol xmlns="http://www.w3.org/2000/svg" viewBox="0 0 64 64" id="health">
    <title>Health</title>
    <path d="M6.775 7.821l25-5.769a1 1 0 01.45 0l25 5.769A1 1 0 0158 8.8v15.265A41.975 41.975 0 0131.994 62 41.97 41.97 0 016 24.065V8.8a1 1 0 01.775-.979z" fill="none" stroke="#28759d" stroke-linecap="round" stroke-miterlimit="10" stroke-width="2" stroke-linejoin="round"></path>
    <path d="M39 18a7.549 7.549 0 00-7 4.815A7.549 7.549 0 0025 18a7.113 7.113 0 00-7 7.222C18 31.481 23.133 37.741 32 44c8.867-6.259 14-12.519 14-18.778A7.113 7.113 0 0039 18z" fill="none" stroke="#24ccfd" stroke-linecap="round" stroke-miterlimit="10" stroke-width="2" stroke-linejoin="round"></path>
  </symbol>
  <symbol xmlns="http://www.w3.org/2000/svg" viewBox="0 0 24 24" id="iconmonstr-media-control-48">
    <path d="M3 22V2l18 10L3 22z"></path>
  </symbol>
    <symbol xmlns="http://www.w3.org/2000/svg" viewBox="0 0 24 24" id="iconmonstr-menu-1">
    <path d="M24 6H0V2h24v4zm0 4H0v4h24v-4zm0 8H0v4h24v-4z"></path>
  </symbol>
  <symbol xmlns="http://www.w3.org/2000/svg" viewBox="0 0 24 24" id="iconmonstr-x-mark-1">
    <path d="M24 20.188l-8.315-8.209 8.2-8.282L20.188 0l-8.212 8.318L3.666.115 0 3.781l8.321 8.24-8.206 8.313L3.781 24l8.237-8.318 8.285 8.203z"></path>
  </symbol>
  <symbol xmlns="http://www.w3.org/2000/svg" viewBox="0 0 24 24" id="iconmonstr-arrow-63">
    <path d="M7.33 24L4.5 21.171l9.339-9.175L4.5 2.829 7.33 0 19.5 11.996z"></path>
  </symbol>
  <symbol xmlns="http://www.w3.org/2000/svg" viewBox="0 0 24 24" id="iconmonstr-arrow-64">
    <path d="M16.67 0l2.83 2.829-9.339 9.175 9.339 9.167L16.67 24 4.5 12.004z"></path>
  </symbol>
</svg>